<svg width="150" height="53" viewBox="0 0 150 53" fill="none" xmlns="http://www.w3.org/2000/svg">
<path d="M16.18 25.57C13.92 25.57 12.06 23.8 11.92 21.57C11.555 21.61 11.187 21.63 10.82 21.63C4.85 21.62 0 16.77 0 10.81C0 4.85 4.85 0 10.81 0C15.98 0 20.31 3.64 21.37 8.5C24.42 9.12 26.72 11.82 26.72 15.05C26.72 18.6 23.93 21.52 20.43 21.72C20.211 23.904 18.375 25.568 16.18 25.57ZM12.56 21.48C12.66 23.39 14.24 24.92 16.18 24.92C18.12 24.92 19.57 23.52 19.78 21.73C18.389 21.674 17.049 21.185 15.95 20.33C14.91 20.89 13.77 21.29 12.56 21.49V21.48ZM16.55 19.97C17.47 20.63 18.59 21.03 19.79 21.08C19.728 20.059 19.238 19.111 18.44 18.47C17.87 19.04 17.24 19.54 16.55 19.97ZM18.89 17.99C19.79 18.73 20.38 19.83 20.45 21.06C23.59 20.85 26.08 18.23 26.08 15.04C26.08 12.22 24.13 9.84 21.51 9.19C21.59 9.72 21.63 10.26 21.63 10.81C21.63 13.56 20.6 16.08 18.89 17.99ZM10.81 0.65C5.21 0.65 0.65 5.21 0.65 10.81C0.65 16.41 5.21 20.97 10.81 20.97C11.18 20.97 11.56 20.95 11.92 20.91C12.04 19.55 12.8 18.37 13.9 17.68C13.55 16.87 13.36 15.98 13.36 15.04C13.36 11.36 16.36 8.36 20.04 8.36C20.26 8.36 20.47 8.37 20.69 8.39C19.6 3.95 15.58 0.65 10.81 0.65ZM14.18 18.27C13.32 18.84 12.72 19.76 12.58 20.82C13.58 20.64 14.53 20.32 15.41 19.87C14.92 19.4 14.51 18.86 14.18 18.27ZM14.75 17.96C15.08 18.55 15.51 19.09 16.01 19.54C16.69 19.13 17.32 18.65 17.88 18.1C16.95 17.6 15.72 17.55 14.75 17.96ZM16.18 17.02C16.97 17.02 17.72 17.24 18.35 17.62C19.98 15.82 20.97 13.43 20.97 10.81C20.97 10.21 20.92 9.63 20.82 9.06C19.098 8.835 17.363 9.362 16.057 10.507C14.751 11.652 14.002 13.303 14 15.04C14 15.87 14.17 16.65 14.47 17.37C14.99 17.14 15.57 17.02 16.17 17.02H16.18Z" fill="white"/>
<path d="M19.93 27.84V46.1H14.34V32.44H11V27.84H19.93ZM58.25 29.6C58.25 29.6 58.28 29.56 58.3 29.54C58.34 29.49 58.38 29.43 58.43 29.38C58.48 29.33 58.44 29.36 58.44 29.36C58.49 29.3 58.54 29.24 58.6 29.19C58.66 29.14 58.62 29.17 58.62 29.17L58.68 29.11C58.73 29.06 58.79 29 58.85 28.95C58.91 28.9 58.86 28.93 58.86 28.93C58.94 28.86 59.02 28.79 59.11 28.73C59.2 28.67 59.15 28.7 59.17 28.68C59.19 28.66 59.24 28.63 59.28 28.6C59.32 28.57 59.33 28.57 59.33 28.57L59.63 28.39C59.63 28.39 59.68 28.36 59.71 28.34C59.74 28.32 59.78 28.3 59.82 28.28C59.95 28.21 60.09 28.14 60.23 28.07C60.302 28.034 60.318 28.027 60.322 28.026C60.322 28.026 60.324 28.024 60.33 28.02L60.36 28C60.42 27.97 60.49 27.95 60.55 27.92C60.61 27.89 60.63 27.89 60.67 27.87C60.71 27.85 60.75 27.84 60.8 27.82C60.85 27.8 60.84 27.8 60.84 27.8C60.84 27.8 60.93 27.77 60.98 27.75L61.03 27.73C61.08 27.71 61.13 27.7 61.18 27.68C61.41 27.61 61.65 27.55 61.89 27.51H61.91L61.98 27.49C62.07 27.47 62.17 27.46 62.26 27.44C62.35 27.42 62.33 27.43 62.37 27.42H62.39C62.39 27.42 62.46 27.41 62.5 27.4C62.54 27.39 62.6 27.39 62.64 27.38H62.65C62.7 27.38 62.76 27.37 62.82 27.36H62.84C62.91 27.36 62.99 27.35 63.07 27.34H63.1C63.23 27.34 63.37 27.33 63.51 27.33C63.66 27.33 63.81 27.33 63.96 27.34C64.11 27.35 63.97 27.34 63.97 27.34C64.05 27.34 64.13 27.34 64.21 27.35C64.29 27.36 64.24 27.35 64.24 27.35C64.35 27.35 64.46 27.37 64.57 27.38C64.61 27.38 64.65 27.38 64.69 27.39C64.73 27.4 64.71 27.39 64.71 27.39C64.75 27.39 64.78 27.39 64.82 27.4C64.92 27.41 65.02 27.43 65.11 27.45C65.2 27.47 65.12 27.45 65.12 27.45C65.15 27.45 65.17 27.45 65.2 27.46L65.51 27.52C65.53 27.52 65.55 27.52 65.57 27.53C65.71 27.56 65.85 27.6 65.99 27.64C66.02 27.64 66.06 27.66 66.09 27.67C66.328 27.741 66.561 27.824 66.79 27.92C66.81 27.92 66.84 27.94 66.86 27.95C66.96 27.99 67.05 28.03 67.14 28.08H67.17V28.1H67.2V28.12C67.28 28.16 67.37 28.2 67.45 28.25C67.51 28.28 67.57 28.31 67.62 28.34C67.68 28.38 67.75 28.41 67.81 28.45C67.84 28.47 67.86 28.48 67.89 28.5L67.94 28.53C68.01 28.58 68.09 28.62 68.16 28.67L68.27 28.75C68.28 28.76 68.3 28.77 68.31 28.78C68.4 28.84 68.48 28.9 68.56 28.97C68.59 28.99 68.61 29.01 68.64 29.03C68.67 29.05 68.69 29.07 68.72 29.09C68.76 29.12 68.79 29.15 68.83 29.18C68.87 29.22 68.91 29.25 68.95 29.29C69.03 29.36 69.11 29.44 69.19 29.51C69.199 29.518 69.207 29.525 69.213 29.53H69.22V29.536C69.24 29.555 69.23 29.546 69.22 29.538V29.55H69.24V29.57L69.28 29.61V29.63H69.29C69.37 29.71 69.45 29.8 69.53 29.88V29.9H69.54C69.6 29.97 69.67 30.04 69.73 30.12C69.76 30.15 69.78 30.18 69.81 30.21C69.83 30.24 69.85 30.26 69.87 30.29L70.06 30.54C70.19 30.72 70.32 30.91 70.44 31.11C70.56 31.31 70.47 31.16 70.49 31.19C70.57 31.32 70.64 31.45 70.71 31.58L70.73 31.61V31.64H70.74C70.78 31.72 70.82 31.81 70.86 31.89V31.92H70.87C70.9 31.98 70.92 32.03 70.95 32.09C70.97 32.14 70.99 32.18 71.01 32.23C71.04 32.29 71.06 32.36 71.09 32.42C71.1 32.45 71.11 32.47 71.12 32.5C71.15 32.58 71.18 32.67 71.21 32.75C71.27 32.9 71.32 33.06 71.37 33.22C71.37 33.23 71.37 33.25 71.38 33.26L71.47 33.59C71.47 33.61 71.47 33.63 71.48 33.65C71.51 33.75 71.53 33.86 71.56 33.97C71.59 34.08 71.58 34.06 71.59 34.11C71.6 34.16 71.6 34.16 71.61 34.19C71.64 34.32 71.66 34.46 71.69 34.59C71.69 34.62 71.7 34.65 71.7 34.68L71.73 34.88C71.73 34.91 71.73 34.95 71.74 34.98C71.76 35.11 71.77 35.24 71.79 35.37C71.79 35.42 71.79 35.47 71.8 35.52L71.83 35.93V35.96C71.83 36.06 71.84 36.16 71.84 36.26V37.19C71.84 37.29 71.84 37.39 71.83 37.49V37.52C71.83 37.65 71.81 37.78 71.8 37.91C71.79 38.04 71.8 38.01 71.79 38.05V38.07C71.78 38.2 71.76 38.32 71.74 38.45C71.72 38.58 71.73 38.54 71.73 38.54C71.73 38.54 71.72 38.62 71.71 38.65C71.71 38.72 71.69 38.78 71.68 38.84C71.67 38.9 71.67 38.92 71.67 38.92C71.65 39.06 71.62 39.19 71.59 39.32C71.56 39.45 71.58 39.38 71.58 39.38C71.57 39.45 71.55 39.52 71.53 39.59C71.51 39.66 71.51 39.65 71.51 39.65C71.5 39.71 71.48 39.77 71.46 39.82C71.44 39.87 71.44 39.9 71.43 39.93C71.42 39.96 71.41 40.01 71.4 40.04C71.38 40.1 71.37 40.15 71.35 40.2L71.33 40.25L71.29 40.45L71.27 40.5C71.24 40.6 71.2 40.7 71.16 40.8C71.12 40.91 71.08 41.01 71.03 41.12C71.01 41.16 71 41.19 70.98 41.23C70.96 41.27 70.97 41.26 70.97 41.26C70.95 41.31 70.93 41.36 70.91 41.4C70.83 41.57 70.75 41.74 70.66 41.91C70.57 42.08 70.61 42.01 70.58 42.05C70.55 42.09 70.54 42.12 70.52 42.16C70.47 42.24 70.43 42.32 70.38 42.4C70.33 42.48 70.35 42.45 70.35 42.45C70.35 42.45 70.3 42.54 70.27 42.58C70.24 42.62 70.23 42.64 70.21 42.67C70.17 42.72 70.14 42.78 70.1 42.83C70.03 42.93 69.96 43.03 69.88 43.13C69.84 43.18 69.81 43.23 69.77 43.27C69.72 43.33 69.67 43.4 69.61 43.46C69.55 43.52 69.6 43.48 69.6 43.48C69.6 43.48 69.54 43.56 69.51 43.59C69.45 43.65 69.39 43.72 69.34 43.78C69.29 43.84 69.33 43.8 69.33 43.8L69.31 43.84C69.24 43.92 69.17 43.99 69.09 44.06C69.01 44.13 69.08 44.08 69.08 44.08L69.06 44.12C69 44.18 68.93 44.24 68.87 44.29C68.81 44.34 68.8 44.35 68.76 44.38C68.72 44.41 68.74 44.4 68.74 44.4C68.66 44.47 68.57 44.54 68.49 44.61C68.41 44.68 68.45 44.64 68.43 44.66C68.33 44.74 68.23 44.81 68.13 44.88C68.03 44.95 68.1 44.9 68.09 44.91L67.73 45.15C67.73 45.15 67.68 45.18 67.65 45.2C67.62 45.22 67.6 45.23 67.57 45.25C67.54 45.27 67.5 45.29 67.46 45.31L67.43 45.33C67.37 45.36 67.31 45.39 67.26 45.43L67.23 45.45C67.18 45.48 67.13 45.5 67.07 45.53C67.01 45.56 67.04 45.55 67.04 45.55L67.01 45.57C66.91 45.62 66.8 45.67 66.69 45.71C66.58 45.75 66.64 45.73 66.62 45.74C66.49 45.8 66.35 45.85 66.21 45.9C66.07 45.95 66.18 45.91 66.17 45.92C66.16 45.93 66.14 45.93 66.13 45.94C66.07 45.96 66 45.98 65.94 46C65.89 46.02 65.84 46.03 65.78 46.05C65.64 46.09 65.5 46.13 65.36 46.16C65.22 46.19 65.32 46.17 65.3 46.18C65.23 46.2 65.15 46.21 65.08 46.23L64.92 46.26C64.92 46.26 64.86 46.27 64.83 46.28C64.73 46.3 64.63 46.31 64.52 46.33C64.41 46.35 64.44 46.34 64.4 46.35L64.09 46.38H64.07C64 46.38 63.93 46.39 63.86 46.4H63.85C63.68 46.41 63.5 46.42 63.32 46.42C63.14 46.42 62.96 46.42 62.79 46.41C62.62 46.4 62.77 46.41 62.77 46.41C62.69 46.41 62.62 46.41 62.54 46.39C62.48 46.39 62.43 46.39 62.37 46.37C62.32 46.37 62.28 46.37 62.23 46.36C62.116 46.348 62.003 46.332 61.89 46.31C61.67 46.28 61.46 46.23 61.25 46.18L61.13 46.14C61.03 46.12 60.94 46.09 60.85 46.06H60.8V46.04C60.7 46.01 60.61 45.98 60.52 45.95L60.48 45.93C60.44 45.91 60.4 45.9 60.36 45.88C60.33 45.87 60.31 45.86 60.28 45.85C60.25 45.84 60.23 45.83 60.2 45.82C60.17 45.81 60.13 45.79 60.09 45.77C59.92 45.7 59.77 45.62 59.62 45.53C59.51 45.47 59.41 45.41 59.31 45.34L59.26 45.31C59.24 45.3 59.23 45.29 59.21 45.28L59.1 45.2C59.08 45.18 59.06 45.17 59.04 45.15C58.99 45.11 58.93 45.07 58.88 45.02H58.86V45C58.86 45 58.78 44.93 58.74 44.89H58.73V44.87H58.71V44.85C58.66 44.8 58.6 44.75 58.55 44.69C58.51 44.64 58.46 44.59 58.42 44.54V52.95H52.84V27.7H58.24V29.57C58.24 29.57 58.29 29.5 58.31 29.46L58.25 29.6ZM44.36 27.14C44.5 27.14 44.63 27.15 44.77 27.15H44.79L45.22 27.18L45.49 27.21C45.62 27.22 45.75 27.25 45.88 27.27C45.95 27.29 46.03 27.3 46.11 27.32C46.31 27.37 46.51 27.42 46.71 27.48C46.8 27.5 46.9 27.54 46.99 27.57C47.23 27.66 47.47 27.76 47.7 27.87C47.83 27.94 47.96 28.01 48.08 28.08C48.11 28.1 48.06 28.06 48.16 28.13C48.26 28.2 48.37 28.27 48.47 28.34C48.53 28.38 48.58 28.43 48.64 28.47C48.66 28.49 48.64 28.48 48.7 28.52C48.76 28.56 48.81 28.61 48.86 28.65L49.13 28.89L49.15 28.91C49.15 28.91 49.1 28.88 49.16 28.93C49.22 28.98 49.27 29.03 49.32 29.09L49.34 29.13C49.34 29.13 49.3 29.1 49.35 29.15C49.4 29.2 49.44 29.26 49.49 29.31C49.52 29.35 49.52 29.35 49.58 29.42C49.64 29.49 49.69 29.56 49.75 29.64C49.81 29.71 49.86 29.78 49.91 29.86C49.92 29.88 49.93 29.89 49.94 29.91C49.95 29.93 49.96 29.94 49.97 29.96C50.02 30.03 50.06 30.1 50.1 30.17C50.15 30.25 50.19 30.33 50.24 30.42C50.24 30.42 50.22 30.37 50.26 30.45C50.3 30.53 50.34 30.61 50.38 30.7C50.4 30.74 50.42 30.79 50.44 30.84C50.48 30.93 50.52 31.02 50.55 31.11C50.57 31.15 50.56 31.13 50.6 31.24C50.64 31.35 50.68 31.45 50.71 31.57C50.731 31.622 50.748 31.675 50.76 31.73C50.8 31.87 50.84 32.02 50.87 32.17C50.88 32.19 50.88 32.23 50.89 32.25C50.9 32.27 50.88 32.22 50.9 32.33C50.92 32.44 50.94 32.56 50.96 32.69C50.97 32.76 50.99 32.83 50.99 32.91C51 32.95 51.01 33.03 51.01 33.03V33.05C51.02 33.09 51 33.13 51.02 33.19C51.04 33.25 51.04 33.31 51.04 33.38C51.06 33.46 51.06 33.54 51.06 33.63C51.07 33.8 51.07 33.97 51.07 34.15V45.98H45.67V35.4C45.67 33.67 44.75 32.31 42.77 32.31C40.79 32.31 39.72 33.81 39.72 35.43V45.98H34.21V35.4C34.21 33.67 33.21 32.31 31.27 32.31C29.33 32.31 28.26 33.82 28.26 35.47V45.98H22.67V27.72H28V29.81C28.01 29.79 28.03 29.76 28.04 29.74C28.05 29.72 28.07 29.71 28.07 29.69C28.079 29.681 28.095 29.665 28.099 29.654C28.098 29.663 28.097 29.677 28.12 29.63C28.15 29.57 28.19 29.52 28.23 29.47C28.25 29.44 28.27 29.42 28.29 29.39C28.31 29.37 28.34 29.33 28.34 29.33V29.31H28.35C28.37 29.28 28.43 29.23 28.43 29.23V29.21C28.48 29.15 28.54 29.1 28.59 29.04L28.68 28.95C28.74 28.89 28.81 28.84 28.87 28.78V28.76H28.89C28.92 28.73 28.95 28.71 28.98 28.68C29.01 28.66 29.06 28.62 29.06 28.62V28.6H29.08C29.1 28.58 29.12 28.57 29.14 28.55L29.26 28.46L29.37 28.38L29.42 28.35C29.44 28.34 29.45 28.33 29.47 28.32C29.49 28.31 29.5 28.29 29.52 28.29C29.56 28.26 29.6 28.24 29.64 28.21C29.67 28.19 29.69 28.18 29.72 28.16C29.75 28.14 29.77 28.13 29.8 28.11C29.85 28.08 29.94 28.03 29.94 28.03V28.01H29.97C30.08 27.95 30.19 27.89 30.31 27.84V27.82H30.34C30.39 27.8 30.43 27.78 30.48 27.76C30.54 27.73 30.61 27.71 30.67 27.68C30.7 27.67 30.72 27.65 30.75 27.65C30.8 27.63 30.84 27.62 30.88 27.6C31.01 27.55 31.13 27.51 31.26 27.47C31.32 27.45 31.37 27.43 31.42 27.42L31.48 27.4C31.58 27.37 31.69 27.34 31.79 27.32C31.84 27.31 31.9 27.3 31.93 27.29C31.96 27.28 31.92 27.29 32.01 27.27C32.1 27.25 32.19 27.23 32.28 27.22C32.31 27.21 32.35 27.21 32.38 27.21C32.42 27.2 32.46 27.2 32.5 27.2C32.54 27.18 32.59 27.18 32.64 27.18C32.64 27.18 32.6 27.19 32.66 27.18C32.72 27.17 32.79 27.17 32.85 27.17H33.2C33.34 27.17 33.48 27.18 33.62 27.18H33.64C33.72 27.19 33.79 27.2 33.87 27.2H33.89C33.95 27.21 34 27.22 34.06 27.22H34.07C34.12 27.23 34.18 27.23 34.22 27.24C34.26 27.25 34.33 27.26 34.33 27.26H34.35C34.38 27.27 34.44 27.28 34.44 27.28H34.46L34.65 27.31C34.67 27.32 34.72 27.33 34.72 27.33H34.73C34.76 27.34 34.81 27.35 34.81 27.35L35.09 27.41C35.11 27.42 35.15 27.43 35.15 27.43L35.26 27.46H35.27L35.32 27.48L35.43 27.51L35.48 27.53L35.68 27.63C35.68 27.63 35.66 27.63 35.72 27.65C35.78 27.67 35.83 27.69 35.88 27.71C35.9 27.72 35.93 27.73 35.95 27.74C35.97 27.75 35.96 27.74 36.02 27.77C36.08 27.8 36.13 27.82 36.19 27.85L36.37 27.97C36.37 27.97 36.35 27.96 36.4 27.99C36.45 28.02 36.51 28.05 36.54 28.07C36.57 28.09 36.6 28.1 36.62 28.12C36.64 28.14 36.67 28.15 36.69 28.17C36.71 28.19 36.74 28.21 36.76 28.22C36.78 28.23 36.81 28.25 36.81 28.25C36.81 28.25 36.84 28.27 36.86 28.28C36.88 28.29 36.89 28.29 36.91 28.31C36.93 28.33 36.97 28.36 36.97 28.36C36.97 28.36 36.96 28.36 37.01 28.39C37.06 28.42 37.14 28.48 37.14 28.48L37.16 28.5C37.171 28.511 37.187 28.524 37.2 28.535C37.205 28.539 37.216 28.549 37.24 28.57C37.32 28.64 37.39 28.71 37.47 28.78L37.49 28.8L37.51 28.84C37.51 28.84 37.47 28.82 37.52 28.86C37.57 28.9 37.66 29 37.66 29L37.67 29.02C37.718 29.062 37.762 29.109 37.8 29.16C37.8 29.16 37.78 29.15 37.81 29.18C37.84 29.21 37.87 29.25 37.89 29.27C37.91 29.29 37.94 29.33 37.94 29.33C37.94 29.33 37.93 29.33 37.95 29.35C37.97 29.37 37.98 29.39 38 29.41C38.02 29.43 38.02 29.43 38.05 29.47C38.08 29.51 38.12 29.56 38.13 29.58C38.14 29.6 38.16 29.63 38.16 29.63C38.16 29.63 38.14 29.61 38.19 29.68C38.24 29.75 38.28 29.82 38.32 29.89C38.34 29.93 38.38 30 38.38 30L38.39 30.03L38.45 30.15C38.47 30.12 38.49 30.08 38.52 30.05L38.56 29.99L38.64 29.88L38.75 29.74C38.77 29.71 38.79 29.69 38.81 29.66C38.84 29.63 38.86 29.6 38.89 29.57C38.95 29.49 39.02 29.42 39.08 29.35H39.09V29.31H39.1C39.29 29.1 39.48 28.91 39.68 28.74V28.72H39.7C39.73 28.7 39.78 28.66 39.78 28.66V28.64H39.79L39.93 28.53C39.95 28.51 39.97 28.5 39.99 28.48C40.01 28.47 40.03 28.45 40.05 28.44C40.11 28.39 40.18 28.35 40.25 28.3C40.27 28.29 40.28 28.28 40.3 28.27C40.32 28.25 40.35 28.24 40.37 28.22C40.39 28.21 40.4 28.19 40.42 28.19C40.48 28.15 40.55 28.12 40.61 28.08L40.64 28.06C40.75 28 40.86 27.94 40.98 27.89V27.87H41.01V27.85H41.04C41.08 27.83 41.11 27.82 41.15 27.8C41.21 27.78 41.26 27.76 41.31 27.74C41.35 27.72 41.39 27.7 41.43 27.69L41.47 27.67C41.54 27.65 41.6 27.63 41.66 27.61V27.59H41.71C41.75 27.58 41.78 27.56 41.82 27.56C41.87 27.54 41.93 27.52 41.99 27.51L42.05 27.49C42.1 27.48 42.14 27.46 42.19 27.46C42.27 27.44 42.34 27.42 42.42 27.41C42.42 27.41 42.4 27.42 42.43 27.41C42.46 27.4 42.48 27.4 42.51 27.4C42.54 27.39 42.57 27.38 42.6 27.38C42.68 27.37 42.75 27.35 42.82 27.35C42.87 27.33 42.91 27.33 42.95 27.33C42.95 27.33 42.87 27.34 42.97 27.33C43.07 27.32 43.18 27.3 43.29 27.3C43.29 27.3 43.09 27.32 43.32 27.3C43.55 27.28 43.79 27.28 44.03 27.28L44.36 27.14ZM37.22 28.55C37.22 28.55 37.212 28.544 37.2 28.535C37.191 28.525 37.22 28.55 37.22 28.55ZM28.1 29.65L28.099 29.654C28.1 29.652 28.1 29.65 28.1 29.65ZM66.56 36.95C66.56 33.9 64.58 32.43 62.41 32.43C60.24 32.43 58.29 33.93 58.29 36.95C58.29 39.97 60.24 41.51 62.41 41.51C64.61 41.51 66.56 40 66.56 36.95ZM79.05 30.25C79.07 30.2 79.12 30.11 79.12 30.11L79.13 30.1V30.08H79.14V30.06H79.15V30.04L79.17 30.01C79.19 29.97 79.2 29.95 79.23 29.9C79.26 29.85 79.28 29.81 79.31 29.77C79.32 29.75 79.34 29.74 79.34 29.72C79.34 29.72 79.34 29.71 79.37 29.67C79.4 29.63 79.43 29.59 79.45 29.56C79.47 29.53 79.49 29.51 79.51 29.48C79.53 29.45 79.57 29.4 79.57 29.4V29.38H79.58C79.6 29.36 79.62 29.33 79.64 29.31C79.76 29.17 79.89 29.05 80.02 28.93C80.05 28.9 80.11 28.85 80.11 28.85V28.83H80.12C80.15 28.81 80.17 28.79 80.2 28.77L80.36 28.65C80.38 28.64 80.4 28.62 80.42 28.61L80.47 28.58C80.52 28.54 80.58 28.51 80.64 28.47C80.67 28.45 80.69 28.44 80.72 28.42C80.76 28.4 80.79 28.38 80.83 28.36C80.98 28.28 81.14 28.21 81.29 28.14C81.31 28.13 81.34 28.12 81.36 28.11C81.45 28.07 81.54 28.03 81.64 28L81.69 27.98L81.73 27.96C81.75 27.94 81.76 27.94 81.78 27.94C81.83 27.92 81.88 27.91 81.93 27.89C81.97 27.88 82 27.86 82.04 27.86C82.13 27.84 82.21 27.82 82.29 27.8C82.34 27.79 82.38 27.77 82.43 27.77C82.46 27.75 82.48 27.75 82.51 27.75C82.57 27.74 82.62 27.72 82.68 27.72C82.75 27.71 82.82 27.69 82.89 27.69C82.93 27.68 82.97 27.68 83.01 27.68C83.06 27.66 83.11 27.66 83.16 27.66C83.16 27.66 83.1 27.67 83.18 27.66C83.26 27.65 83.33 27.65 83.4 27.65H83.96C84.04 27.66 84.11 27.67 84.19 27.67H84.21C84.26 27.68 84.35 27.69 84.35 27.69H84.37L84.6 27.72H84.61C84.63 27.73 84.69 27.74 84.69 27.74H84.7C84.73 27.75 84.76 27.75 84.78 27.76C84.8 27.77 84.85 27.78 84.85 27.78L84.99 27.81C85.04 27.82 85.12 27.84 85.12 27.84V33.35C84.5 33.21 83.91 33.17 83.36 33.17C81.12 33.17 79.1 34.49 79.1 38.13V46.1H73.51V27.84H78.91V30.3L79.05 30.25ZM94.29 27.16C94.56 27.16 94.83 27.17 95.09 27.19H95.12L95.5 27.22H95.51C95.56 27.23 95.54 27.22 95.66 27.24C95.78 27.26 95.91 27.27 96.03 27.29L96.23 27.32C96.31 27.34 96.4 27.35 96.49 27.37C96.51 27.38 96.56 27.39 96.56 27.39L96.85 27.45C97 27.48 97.15 27.52 97.29 27.56C97.33 27.57 97.35 27.57 97.4 27.59C97.45 27.61 97.5 27.62 97.55 27.64C97.66 27.67 97.77 27.71 97.88 27.75C97.88 27.75 97.86 27.75 97.92 27.77C97.98 27.79 98.03 27.81 98.09 27.83C98.12 27.84 98.14 27.85 98.17 27.86C98.2 27.87 98.23 27.88 98.25 27.89C98.27 27.9 98.25 27.88 98.32 27.92C98.39 27.96 98.47 27.99 98.54 28.02C98.54 28.02 98.46 27.99 98.57 28.04C98.68 28.09 98.79 28.15 98.9 28.2C98.98 28.24 99.06 28.29 99.14 28.33C99.19 28.36 99.25 28.39 99.28 28.41C99.31 28.43 99.33 28.44 99.36 28.46C99.39 28.48 99.3 28.42 99.44 28.51C99.58 28.6 99.72 28.69 99.85 28.78C99.93 28.83 100.01 28.89 100.09 28.95C100.11 28.97 100.07 28.93 100.15 29C100.23 29.07 100.32 29.14 100.4 29.21C100.44 29.24 100.45 29.26 100.51 29.3C100.57 29.34 100.62 29.39 100.67 29.44L100.69 29.46L100.7 29.48L101 29.78L101.02 29.82L101.04 29.84L101.28 30.11C101.3 30.14 101.31 30.16 101.34 30.19C101.37 30.22 101.36 30.21 101.42 30.28C101.48 30.35 101.53 30.42 101.58 30.49C101.59 30.51 101.6 30.52 101.61 30.54C101.62 30.56 101.6 30.53 101.65 30.6C101.7 30.67 101.74 30.74 101.79 30.81C101.8 30.83 101.76 30.78 101.82 30.86C101.88 30.94 101.93 31.02 101.98 31.11C102 31.14 102.01 31.15 102.03 31.19C102.05 31.23 102.09 31.3 102.09 31.3C102.231 31.546 102.358 31.799 102.47 32.06C102.49 32.11 102.51 32.15 102.53 32.2C102.54 32.23 102.56 32.28 102.56 32.28C102.56 32.28 102.58 32.33 102.59 32.36C102.6 32.39 102.6 32.4 102.62 32.44C102.64 32.48 102.64 32.5 102.67 32.57C102.7 32.64 102.72 32.72 102.75 32.79C102.76 32.81 102.77 32.84 102.77 32.84C102.77 32.84 102.74 32.78 102.78 32.89C102.82 33 102.85 33.12 102.89 33.25C102.9 33.28 102.88 33.22 102.92 33.36C102.96 33.5 103 33.65 103.03 33.8C103.06 33.92 103.09 34.05 103.11 34.18C103.111 34.184 103.113 34.187 103.113 34.187C103.111 34.184 103.107 34.18 103.12 34.26C103.14 34.38 103.16 34.51 103.18 34.64C103.19 34.67 103.19 34.67 103.2 34.75C103.21 34.83 103.23 34.91 103.23 34.99C103.24 35.04 103.25 35.09 103.25 35.15C103.26 35.2 103.26 35.29 103.26 35.29V35.31C103.27 35.43 103.29 35.56 103.29 35.69V35.72C103.3 35.81 103.3 35.9 103.3 35.99C103.31 36.19 103.31 36.39 103.31 36.59C103.31 36.79 103.3 36.99 103.3 37.19C103.27 37.75 103.23 38.23 103.2 38.31H90.49C90.6 40.37 92.47 41.84 94.64 41.84C96.44 41.84 97.54 41.08 98.12 39.91L102.98 40.78C102.97 40.79 102.97 40.81 102.97 40.82L102.94 40.93C102.94 40.95 102.93 40.98 102.93 40.98H102.92V41.02C102.91 41.03 102.91 41.06 102.91 41.06L102.9 41.07V41.11L102.89 41.12V41.16C102.89 41.16 102.9 41.16 102.89 41.17C102.88 41.18 102.88 41.21 102.88 41.21H102.87V41.25H102.86V41.29C102.85 41.3 102.85 41.3 102.84 41.33C102.83 41.36 102.81 41.38 102.81 41.41C102.8 41.43 102.78 41.46 102.78 41.48L102.76 41.52H102.75V41.57L102.74 41.59V41.62H102.73V41.66L102.71 41.7H102.7V41.73C102.68 41.76 102.67 41.8 102.65 41.83C102.6 41.92 102.56 42.02 102.51 42.11V42.14L102.5 42.15V42.17L102.49 42.18V42.2H102.48V42.22H102.47V42.24H102.46V42.27L102.44 42.3C102.4 42.36 102.37 42.43 102.33 42.49H102.32V42.51C102.31 42.53 102.29 42.54 102.29 42.56L102.27 42.58C102.26 42.6 102.24 42.61 102.24 42.63C102.23 42.64 102.21 42.67 102.21 42.67H102.2V42.69C102.19 42.71 102.17 42.72 102.17 42.74L102.14 42.78C102.09 42.84 102.05 42.9 102.01 42.96L101.97 43.02L101.94 43.06V43.08L101.91 43.12V43.14L101.88 43.18V43.2L101.85 43.24C101.81 43.3 101.77 43.35 101.73 43.4C101.7 43.43 101.65 43.49 101.65 43.49V43.51H101.63V43.53C101.61 43.55 101.57 43.6 101.57 43.6V43.62H101.55V43.64H101.53V43.66C101.5 43.69 101.44 43.76 101.44 43.76H101.43V43.78C101.37 43.85 101.31 43.91 101.25 43.97V43.99H101.23V44.01H101.21V44.03H101.19V44.05H101.17V44.07H101.15V44.09H101.13V44.11H101.11V44.13H101.09V44.15H101.07V44.17H101.05V44.19H101.03V44.21H101.01C100.96 44.26 100.9 44.3 100.85 44.35C100.82 44.38 100.76 44.43 100.76 44.43V44.45H100.75C100.74 44.47 100.7 44.5 100.7 44.5V44.52H100.68V44.54H100.67L100.63 44.57H100.62V44.59H100.6V44.61H100.59C100.57 44.63 100.53 44.66 100.53 44.66V44.68H100.52C100.5 44.7 100.48 44.71 100.46 44.73C100.41 44.76 100.37 44.79 100.33 44.82L100.25 44.88V44.9H100.23V44.92H100.2V44.94H100.19C100.18 44.95 100.16 44.97 100.15 44.97C100.14 44.98 100.12 45 100.11 45L100.07 45.03C100.06 45.04 100.04 45.06 100.03 45.06C100.02 45.07 100 45.09 99.99 45.09L99.79 45.21C99.77 45.22 99.72 45.25 99.72 45.25V45.27H99.69V45.29H99.66V45.31H99.65L99.62 45.33V45.35H99.59V45.37H99.57C99.57 45.37 99.58 45.36 99.56 45.37C99.54 45.38 99.53 45.4 99.51 45.4L99.48 45.42V45.44H99.45L99.21 45.56H99.2V45.58H99.17V45.6H99.14V45.62H99.11V45.64H99.08V45.66H99.05V45.68H99V45.7H98.97V45.72H98.94V45.74H98.91V45.76H98.88L98.84 45.78H98.83V45.8H98.8C98.76 45.82 98.73 45.83 98.69 45.85C98.66 45.86 98.64 45.87 98.61 45.88L98.57 45.9V45.92H98.52V45.94H98.49V45.96H98.44V45.98H98.39V46H98.34V46.02H98.31V46.04H98.26V46.06H98.21V46.08H98.16L97.98 46.14V46.16H97.93C97.91 46.17 97.88 46.18 97.88 46.18H97.87V46.2H97.81V46.22H97.76V46.24H97.7V46.26H97.64V46.28H97.59V46.3H97.53V46.32H97.49C97.47 46.33 97.45 46.33 97.43 46.33C97.37 46.35 97.3 46.36 97.23 46.38C97.21 46.39 97.18 46.4 97.16 46.4C97.16 46.4 97.15 46.39 97.14 46.4C97.13 46.41 97.09 46.41 97.09 46.41H97.06V46.43H96.98V46.45H96.89V46.47H96.81V46.49H96.75C96.75 46.49 96.79 46.48 96.73 46.49C96.67 46.5 96.61 46.52 96.55 46.52C96.51 46.54 96.48 46.54 96.44 46.54C96.44 46.54 96.44 46.53 96.41 46.54C96.38 46.55 96.35 46.55 96.32 46.55H96.04C96.04 46.55 96.03 46.54 95.99 46.55C95.95 46.56 95.9 46.56 95.86 46.56C95.86 46.56 95.93 46.54 95.85 46.56C95.77 46.58 95.7 46.58 95.63 46.58H94.64C94.53 46.57 94.42 46.56 94.31 46.56H94.29C94.22 46.55 94.14 46.54 94.07 46.54L93.75 46.51C93.71 46.5 93.67 46.5 93.63 46.49C93.59 46.48 93.51 46.47 93.51 46.47L93.31 46.44C93.28 46.43 93.22 46.42 93.22 46.42L92.89 46.36H92.88C92.86 46.35 93.01 46.38 92.81 46.34C92.61 46.3 92.42 46.25 92.23 46.2C92.14 46.17 92.05 46.15 91.96 46.12C91.94 46.11 92 46.13 91.91 46.1C91.82 46.07 91.72 46.03 91.63 46C91.62 45.99 91.65 46 91.59 45.98C91.53 45.96 91.48 45.94 91.42 45.92C91.34 45.89 91.26 45.85 91.18 45.82C91.16 45.81 91.18 45.82 91.11 45.79C91.04 45.76 90.96 45.73 90.89 45.7C90.81 45.67 90.73 45.63 90.65 45.59C90.65 45.59 90.68 45.6 90.62 45.57C90.56 45.54 90.51 45.52 90.46 45.49L90.43 45.47C90.43 45.47 90.55 45.53 90.4 45.45C90.25 45.37 90.11 45.29 89.97 45.21C89.94 45.19 89.92 45.18 89.89 45.16C89.86 45.14 89.81 45.11 89.81 45.11L89.68 45.03C89.68 45.03 89.65 45.01 89.63 45C89.61 44.99 89.58 44.97 89.58 44.97C89.58 44.97 89.55 44.95 89.54 44.94C89.53 44.93 89.5 44.91 89.5 44.91C89.5 44.91 89.52 44.92 89.46 44.88C89.4 44.84 89.35 44.81 89.3 44.77C89.26 44.74 89.28 44.76 89.19 44.69C89.1 44.62 89 44.55 88.91 44.47C88.88 44.45 88.86 44.44 88.83 44.41C88.8 44.38 88.78 44.37 88.74 44.33C88.7 44.29 88.69 44.27 88.63 44.23C88.57 44.19 88.52 44.14 88.47 44.09C88.47 44.09 88.63 44.23 88.46 44.07C88.29 43.91 88.12 43.74 87.96 43.56C87.96 43.56 88 43.58 87.95 43.54C87.9 43.5 87.82 43.4 87.82 43.4C87.82 43.4 87.87 43.45 87.81 43.38C87.75 43.31 87.7 43.24 87.64 43.17C87.62 43.14 87.6 43.12 87.58 43.09C87.56 43.06 87.59 43.09 87.52 43.01C87.45 42.93 87.39 42.85 87.33 42.76C87.32 42.74 87.33 42.75 87.29 42.7C87.25 42.65 87.22 42.59 87.18 42.54C87.17 42.52 87.15 42.49 87.15 42.49C87.15 42.49 87.13 42.46 87.12 42.44C87.11 42.42 87.13 42.44 87.09 42.39C87.05 42.34 87.02 42.28 86.98 42.22C86.95 42.17 86.92 42.12 86.89 42.06C86.87 42.03 86.86 42.02 86.84 41.98C86.82 41.94 86.81 41.91 86.78 41.87C86.75 41.83 86.7 41.73 86.7 41.73L86.68 41.7C86.576 41.512 86.483 41.318 86.4 41.12C86.4 41.12 86.41 41.13 86.39 41.09C86.37 41.05 86.39 41.09 86.34 40.98C86.29 40.87 86.25 40.77 86.21 40.66C86.2 40.63 86.2 40.63 86.18 40.58C86.16 40.53 86.14 40.47 86.12 40.41C86.11 40.39 86.1 40.36 86.1 40.36L86.09 40.31C86.09 40.31 86.09 40.28 86.08 40.26C86.07 40.24 86.07 40.21 86.07 40.21C86.07 40.21 86.07 40.18 86.06 40.16C86.05 40.14 86.05 40.11 86.05 40.11L85.99 39.9C85.98 39.86 85.97 39.81 85.96 39.79C85.95 39.77 85.94 39.73 85.94 39.73L85.91 39.62C85.91 39.62 85.91 39.65 85.89 39.56C85.87 39.47 85.85 39.39 85.83 39.29C85.82 39.27 85.83 39.25 85.82 39.23C85.81 39.21 85.8 39.15 85.8 39.15L85.74 38.83C85.72 38.81 85.73 38.76 85.72 38.74C85.71 38.72 85.72 38.68 85.71 38.65C85.7 38.62 85.7 38.56 85.7 38.56L85.67 38.34C85.66 38.3 85.65 38.22 85.65 38.22V38.2C85.64 38.16 85.65 38.18 85.64 38.07C85.63 37.96 85.61 37.85 85.61 37.74V37.71C85.6 37.65 85.6 37.58 85.6 37.51V37.49C85.59 37.38 85.59 37.27 85.59 37.15V36.46C85.59 36.35 85.6 36.24 85.6 36.13V36.11C85.61 36.04 85.61 35.98 85.61 35.91V35.88L85.64 35.56V35.55C85.64 35.51 85.65 35.46 85.65 35.42L85.71 34.98C85.72 34.95 85.72 34.93 85.72 34.9V34.89C85.72 34.86 85.73 34.84 85.73 34.81L85.79 34.5C85.79 34.5 85.8 34.45 85.81 34.43C85.82 34.41 85.82 34.39 85.82 34.37C85.85 34.27 85.87 34.16 85.9 34.06C85.91 34.05 85.91 34.03 85.91 34.01C85.94 33.89 85.98 33.76 86.02 33.64H86.03V33.59C86.04 33.58 86.04 33.56 86.04 33.55C86.05 33.54 86.05 33.51 86.05 33.51H86.06V33.47C86.09 33.38 86.12 33.3 86.15 33.21C86.17 33.17 86.18 33.13 86.2 33.09L86.29 32.85C86.31 32.81 86.32 32.78 86.34 32.74C86.36 32.69 86.38 32.65 86.4 32.6C86.43 32.54 86.46 32.47 86.49 32.4L86.51 32.37H86.52V32.34H86.53V32.31C86.54 32.3 86.54 32.28 86.54 32.28H86.55V32.25L86.57 32.22C86.57 32.22 86.54 32.27 86.59 32.19C86.64 32.11 86.68 32.03 86.72 31.95C86.74 31.91 86.76 31.88 86.78 31.84C86.8 31.8 86.82 31.77 86.84 31.73C86.87 31.67 86.9 31.62 86.93 31.57C86.96 31.52 86.98 31.48 87.01 31.44C87.02 31.42 87.04 31.41 87.04 31.39C87.09 31.32 87.15 31.24 87.2 31.16L87.28 31.05C87.33 30.97 87.39 30.9 87.45 30.82L87.56 30.68C87.61 30.63 87.65 30.57 87.7 30.51C87.73 30.47 87.76 30.44 87.79 30.4C87.83 30.36 87.86 30.32 87.9 30.28C87.96 30.21 88.03 30.13 88.1 30.06H88.11V30.02H88.13V30H88.15V29.98H88.16L88.3 29.84V29.82H88.31L88.33 29.8L88.69 29.47C88.72 29.44 88.75 29.42 88.78 29.39C88.86 29.32 88.95 29.26 89.03 29.19C89.14 29.1 89.24 29.03 89.35 28.95L89.39 28.92C89.44 28.88 89.5 28.85 89.55 28.81C89.58 28.79 89.6 28.78 89.64 28.75C89.68 28.72 89.72 28.7 89.76 28.67C89.78 28.66 89.79 28.64 89.81 28.64C89.84 28.62 89.86 28.61 89.89 28.59C89.94 28.56 90 28.53 90.05 28.5C90.09 28.48 90.12 28.46 90.16 28.44C90.17 28.42 90.19 28.42 90.19 28.42C90.41 28.29 90.64 28.18 90.88 28.07V28.05H90.91C90.95 28.03 90.98 28.02 91.02 28C91.12 27.95 91.23 27.91 91.33 27.87C91.45 27.83 91.56 27.79 91.68 27.75C91.7 27.74 91.71 27.73 91.73 27.73C91.75 27.71 91.78 27.71 91.78 27.71L92.09 27.62C92.13 27.61 92.18 27.6 92.2 27.59C92.22 27.58 92.24 27.57 92.26 27.57C92.33 27.55 92.39 27.53 92.45 27.52V27.5H92.51C92.56 27.49 92.57 27.49 92.65 27.47C92.73 27.45 92.81 27.43 92.89 27.42C92.91 27.41 92.94 27.4 92.97 27.4H92.98L93.38 27.34C93.43 27.33 93.4 27.34 93.51 27.33C93.62 27.32 93.73 27.3 93.84 27.3C93.84 27.3 93.78 27.31 93.86 27.3C93.94 27.29 94.01 27.29 94.09 27.29C94.23 27.28 94.38 27.28 94.52 27.28L94.29 27.16ZM103.113 34.187C103.113 34.189 103.113 34.187 103.113 34.187ZM98.28 34.78C98.2 33.38 97.25 31.69 94.6 31.69C92.25 31.69 91.07 33.42 90.96 34.78H98.28ZM113.65 34.68C113.67 34.69 113.71 34.69 113.71 34.69L113.85 34.72L113.91 34.74H113.92L113.97 34.76H113.99C114.01 34.77 114.05 34.78 114.05 34.78L114.17 34.82C114.17 34.82 114.21 34.83 114.23 34.84C114.25 34.85 114.29 34.86 114.29 34.86L114.4 34.89L114.46 34.91L114.51 34.93L114.55 34.95H114.56L114.61 34.97L114.69 35.01H114.7L114.74 35.03H114.75C114.86 35.06 114.97 35.1 115.07 35.14L115.11 35.16L115.14 35.18H115.15L115.18 35.2L115.22 35.22L115.25 35.24H115.26L115.3 35.26C115.32 35.27 115.35 35.28 115.37 35.29C115.39 35.3 115.4 35.3 115.44 35.32C115.48 35.34 115.5 35.35 115.55 35.37C115.6 35.39 115.69 35.43 115.69 35.43L115.75 35.47L115.79 35.51H115.8C115.9 35.56 116 35.61 116.1 35.67L116.12 35.69L116.15 35.71C116.18 35.73 116.23 35.76 116.23 35.76L116.25 35.78L116.28 35.8L116.33 35.83C116.33 35.83 116.32 35.83 116.35 35.85C116.38 35.87 116.38 35.87 116.43 35.9C116.48 35.93 116.54 35.97 116.56 35.98C116.58 35.99 116.6 36 116.61 36.01C116.62 36.02 116.64 36.03 116.65 36.04C116.66 36.05 116.69 36.07 116.69 36.07L116.7 36.09L116.72 36.11L116.73 36.13L116.77 36.16C116.77 36.16 116.74 36.15 116.81 36.19C116.88 36.23 116.94 36.28 117 36.33C117 36.33 116.99 36.33 117.01 36.35C117.03 36.37 117.07 36.4 117.07 36.4C117.07 36.4 117.06 36.4 117.08 36.42C117.1 36.44 117.14 36.47 117.14 36.47L117.16 36.49C117.16 36.49 117.15 36.49 117.17 36.51C117.19 36.53 117.17 36.51 117.24 36.57C117.31 36.63 117.38 36.7 117.45 36.76L117.47 36.78L117.54 36.92C117.54 36.92 117.5 36.89 117.55 36.94C117.6 36.99 117.64 37.04 117.69 37.1L117.7 37.12C117.7 37.12 117.69 37.12 117.71 37.14C117.73 37.16 117.77 37.22 117.77 37.22C117.77 37.22 117.76 37.22 117.78 37.24C117.8 37.26 117.84 37.32 117.84 37.32C117.84 37.32 117.8 37.28 117.85 37.34C117.9 37.4 117.94 37.46 117.99 37.53L118.02 37.58L118.03 37.6L118.06 37.65C118.06 37.65 118.08 37.68 118.09 37.7C118.1 37.72 118.11 37.73 118.12 37.75C118.13 37.77 118.14 37.78 118.15 37.8C118.16 37.82 118.18 37.83 118.18 37.85C118.2 37.88 118.23 37.93 118.23 37.93C118.23 37.93 118.24 37.93 118.25 37.96C118.26 37.99 118.29 38.04 118.29 38.04L118.31 38.1C118.32 38.13 118.35 38.18 118.35 38.18L118.39 38.24L118.42 38.3C118.42 38.3 118.42 38.31 118.43 38.33C118.44 38.35 118.46 38.41 118.46 38.41V38.44L118.48 38.5L118.5 38.55C118.5 38.55 118.49 38.53 118.51 38.58C118.53 38.63 118.55 38.69 118.57 38.74L118.6 38.89C118.6 38.89 118.6 38.93 118.61 38.94C118.62 38.95 118.62 38.99 118.62 38.99L118.64 39.09C118.663 39.145 118.679 39.202 118.69 39.26L118.7 39.32C118.7 39.32 118.7 39.36 118.71 39.38C118.72 39.4 118.72 39.44 118.72 39.44V39.46C118.73 39.47 118.72 39.49 118.73 39.52C118.74 39.55 118.73 39.54 118.74 39.6C118.75 39.66 118.77 39.72 118.77 39.78V39.81C118.78 39.83 118.78 39.89 118.78 39.89V39.92C118.79 39.96 118.79 40.03 118.79 40.03V40.05C118.8 40.11 118.8 40.16 118.8 40.21V40.26C118.81 40.38 118.81 40.5 118.81 40.62V40.64C118.81 40.78 118.8 40.93 118.8 41.07V41.08L118.77 41.38C118.77 41.38 118.79 41.29 118.77 41.39C118.75 41.49 118.74 41.59 118.72 41.69C118.7 41.77 118.69 41.84 118.67 41.92C118.64 42.02 118.62 42.13 118.59 42.23C118.54 42.42 118.47 42.6 118.4 42.79C118.37 42.85 118.35 42.92 118.32 42.98C118.3 43.03 118.3 43.03 118.26 43.12C118.22 43.21 118.17 43.31 118.12 43.4C118.09 43.45 118.07 43.49 118.04 43.54L117.83 43.87C117.79 43.92 117.76 43.98 117.72 44.03C117.61 44.19 117.49 44.34 117.36 44.49H117.35V44.51C117.29 44.58 117.22 44.64 117.16 44.71L117.14 44.73H117.13V44.77H117.11V44.79H117.09V44.81H117.07L117.05 44.83C116.98 44.9 116.91 44.97 116.83 45.04C116.79 45.07 116.76 45.1 116.72 45.13C116.68 45.16 116.66 45.17 116.62 45.21C116.58 45.25 116.53 45.28 116.48 45.32C116.46 45.34 116.44 45.35 116.42 45.37C116.06 45.634 115.675 45.862 115.27 46.05C115.22 46.07 115.18 46.09 115.13 46.11C115.09 46.13 115.06 46.14 115.02 46.16C114.99 46.17 114.97 46.18 114.94 46.19C114.91 46.2 114.89 46.21 114.86 46.22C114.5 46.36 114.12 46.48 113.71 46.57C113.63 46.59 113.56 46.6 113.48 46.62C113.48 46.62 113.49 46.61 113.47 46.62C113.45 46.63 113.42 46.63 113.4 46.63C113.31 46.65 113.21 46.67 113.12 46.68C113.09 46.69 113.05 46.69 113.02 46.69C113.02 46.69 113.13 46.67 113.01 46.69C112.89 46.71 112.76 46.73 112.63 46.74C112.63 46.74 112.74 46.73 112.62 46.74C112.5 46.75 112.37 46.77 112.24 46.77C112.24 46.77 112.33 46.76 112.21 46.77C112.09 46.78 111.98 46.78 111.86 46.78H111.23C111.1 46.77 110.98 46.76 110.86 46.76H110.84C110.76 46.75 110.69 46.74 110.61 46.74L110.28 46.71H110.26C110.21 46.7 110.13 46.69 110.13 46.69L109.9 46.66H109.89C109.86 46.65 109.92 46.66 109.79 46.64C109.66 46.62 109.55 46.6 109.43 46.58C109.41 46.57 109.38 46.57 109.36 46.56C109.34 46.55 109.51 46.59 109.29 46.54C109.07 46.49 108.86 46.44 108.66 46.38C108.62 46.37 108.57 46.36 108.55 46.35C108.53 46.34 108.61 46.36 108.5 46.33C108.39 46.3 108.28 46.26 108.17 46.22C108.16 46.21 108.22 46.23 108.13 46.2C108.04 46.17 107.94 46.13 107.85 46.09C107.72 46.04 107.59 45.98 107.46 45.92L107.37 45.86C107.34 45.84 107.34 45.85 107.28 45.81C107.22 45.77 107.15 45.74 107.08 45.7C107.01 45.66 106.95 45.63 106.89 45.59C106.86 45.57 107.01 45.66 106.81 45.54C106.61 45.42 106.42 45.29 106.24 45.15C106.18 45.11 106.13 45.06 106.08 45.02C106.05 44.99 106.04 44.98 105.99 44.94C105.94 44.9 106.05 44.98 105.85 44.81C105.65 44.64 105.47 44.45 105.31 44.26C105.24 44.18 105.18 44.1 105.11 44.01C105.08 43.96 105.05 43.92 105.02 43.88C104.99 43.84 105 43.85 104.94 43.77C104.88 43.69 104.83 43.61 104.78 43.53C104.73 43.45 104.69 43.37 104.64 43.29C104.61 43.24 104.58 43.18 104.55 43.12C104.5 43.04 104.46 42.96 104.42 42.87C104.39 42.82 104.36 42.76 104.34 42.7C104.19 42.37 104.09 42.05 104.02 41.75C104 41.68 103.98 41.6 103.97 41.53C103.93 41.35 103.91 41.18 103.9 41.02L108.64 40.17C108.72 41.42 109.6 42.63 111.51 42.63C112.94 42.63 113.64 41.86 113.64 41.05C113.64 40.39 113.2 39.83 111.84 39.54L111.65 39.5L109.74 39.07C109.71 39.07 109.64 39.05 109.64 39.05L109.58 39.03H109.57L109.52 39.01H109.5L109.45 38.99H109.43L109.38 38.97H109.36L109.32 38.95H109.3L109.25 38.93H109.23L109.18 38.91H109.17L109.12 38.89C109.07 38.87 109.01 38.86 108.96 38.84L108.85 38.81L108.8 38.79L108.76 38.77H108.75C108.74 38.76 108.71 38.75 108.71 38.75H108.7L108.67 38.73H108.66L108.56 38.69C108.56 38.69 108.58 38.7 108.51 38.67C108.44 38.64 108.36 38.62 108.29 38.59C108.28 38.58 108.25 38.57 108.25 38.57L108.22 38.55H108.21L108.17 38.53L108.14 38.51H108.13C108.13 38.51 108.12 38.5 108.1 38.49C108.08 38.48 108.05 38.47 108.03 38.46C108.01 38.45 107.98 38.44 107.96 38.43C107.94 38.42 107.94 38.42 107.89 38.4C107.84 38.38 107.75 38.34 107.75 38.34L107.72 38.32C107.72 38.32 107.73 38.32 107.7 38.3C107.67 38.28 107.6 38.25 107.6 38.25L107.42 38.13C107.42 38.13 107.45 38.14 107.39 38.11C107.33 38.08 107.28 38.05 107.22 38.02L107.19 38L107.14 37.97L107.12 37.95L107.09 37.93L107.04 37.9L107.02 37.88L106.97 37.85C106.97 37.85 107.02 37.87 106.95 37.83C106.88 37.79 106.82 37.75 106.76 37.7C106.75 37.69 106.72 37.67 106.72 37.67L106.64 37.61L106.63 37.59L106.59 37.56C106.59 37.56 106.57 37.55 106.55 37.53C106.53 37.51 106.52 37.5 106.49 37.48C106.46 37.46 106.44 37.44 106.41 37.42C106.38 37.4 106.33 37.36 106.33 37.36C106.33 37.36 106.34 37.36 106.32 37.34C106.3 37.32 106.25 37.28 106.25 37.28L106.24 37.26C106.24 37.26 106.26 37.27 106.23 37.24C106.2 37.21 106.22 37.23 106.14 37.16C106.06 37.09 105.99 37.02 105.92 36.94V36.86L105.89 36.8C105.89 36.8 105.91 36.81 105.88 36.78C105.85 36.75 105.79 36.67 105.79 36.67C105.79 36.67 105.8 36.67 105.78 36.65C105.76 36.63 105.73 36.59 105.73 36.59V36.57C105.73 36.57 105.74 36.57 105.72 36.55C105.7 36.53 105.67 36.49 105.67 36.49C105.67 36.49 105.68 36.49 105.66 36.47C105.64 36.45 105.63 36.43 105.61 36.41C105.59 36.39 105.57 36.37 105.56 36.35C105.55 36.33 105.54 36.32 105.53 36.3C105.52 36.28 105.51 36.27 105.5 36.25C105.49 36.23 105.48 36.22 105.47 36.2C105.46 36.18 105.45 36.17 105.44 36.15C105.43 36.13 105.42 36.12 105.41 36.1C105.4 36.08 105.41 36.1 105.38 36.05C105.35 36 105.32 35.94 105.29 35.89L105.27 35.83C105.26 35.8 105.23 35.75 105.23 35.75L105.19 35.69L105.17 35.63C105.17 35.63 105.18 35.64 105.16 35.6C105.14 35.56 105.12 35.51 105.1 35.46L105.09 35.43L105.08 35.38L105.07 35.35C105.06 35.32 105.05 35.3 105.04 35.27C105.03 35.24 105.03 35.25 105.01 35.19C104.99 35.13 104.97 35.07 104.95 35C104.95 35 104.95 34.97 104.94 34.95C104.93 34.93 104.94 34.92 104.93 34.9C104.92 34.88 104.92 34.85 104.92 34.85V34.83L104.91 34.78C104.9 34.73 104.88 34.67 104.87 34.61C104.86 34.59 104.86 34.55 104.85 34.53C104.84 34.51 104.84 34.47 104.84 34.47V34.45C104.83 34.43 104.83 34.39 104.83 34.39V34.37C104.82 34.35 104.83 34.38 104.82 34.31C104.81 34.24 104.79 34.18 104.79 34.1C104.78 34.06 104.78 33.99 104.78 33.99V33.95C104.77 33.91 104.77 33.84 104.77 33.84V33.82C104.76 33.76 104.76 33.7 104.76 33.64V33.25C104.76 33.13 104.77 33.01 104.77 32.89C104.77 32.83 104.78 32.77 104.78 32.71C104.78 32.67 104.79 32.62 104.79 32.58C104.8 32.45 104.82 32.32 104.85 32.19C104.91 31.91 104.99 31.63 105.09 31.36C105.11 31.32 105.12 31.28 105.14 31.24C105.24 31.02 105.34 30.79 105.46 30.58C105.48 30.54 105.48 30.54 105.52 30.47C105.56 30.4 105.61 30.33 105.65 30.26C105.66 30.24 105.67 30.23 105.68 30.21L105.74 30.12L105.82 30.01C105.86 29.94 105.91 29.88 105.96 29.82C105.98 29.79 105.99 29.77 106.02 29.74C106.05 29.71 106.07 29.68 106.1 29.65C106.14 29.6 106.17 29.56 106.21 29.52C106.35 29.36 106.51 29.2 106.68 29.05C106.78 28.97 106.88 28.88 106.98 28.8C107.11 28.7 107.25 28.6 107.39 28.5L107.44 28.47L107.61 28.36C107.7 28.3 107.79 28.25 107.88 28.2C107.97 28.15 108.06 28.11 108.15 28.06L108.18 28.04C108.27 27.99 108.36 27.95 108.45 27.91C108.49 27.89 108.52 27.88 108.56 27.86C108.67 27.81 108.77 27.77 108.88 27.73C109.03 27.67 109.19 27.62 109.35 27.57L109.46 27.54C109.5 27.53 109.53 27.51 109.57 27.51C109.61 27.5 109.65 27.48 109.69 27.48C109.71 27.47 109.73 27.47 109.75 27.47C109.82 27.45 109.89 27.43 109.96 27.42C109.99 27.41 110.01 27.4 110.04 27.4C110.07 27.39 110.09 27.38 110.12 27.38C110.24 27.36 110.36 27.34 110.49 27.32C110.62 27.3 110.75 27.28 110.88 27.27C110.94 27.25 110.99 27.25 111.05 27.25C111.13 27.23 111.22 27.23 111.3 27.23C111.7 27.212 112.101 27.219 112.5 27.25H112.52L112.88 27.28H112.9C112.94 27.29 112.92 27.28 113.03 27.3C113.14 27.32 113.26 27.33 113.37 27.35H113.38C113.41 27.36 113.45 27.36 113.48 27.37C113.51 27.38 113.57 27.39 113.57 27.39L113.74 27.42C113.86 27.44 113.98 27.47 114.1 27.5C114.1 27.5 114.14 27.51 114.16 27.52C114.18 27.53 114.2 27.53 114.22 27.54C114.24 27.55 114.22 27.54 114.28 27.56C114.34 27.58 114.39 27.59 114.45 27.61C114.51 27.63 114.56 27.64 114.61 27.66C114.7 27.69 114.8 27.73 114.89 27.76C114.89 27.76 114.85 27.75 114.93 27.78C115.01 27.81 115.1 27.84 115.18 27.87C115.3 27.92 115.42 27.97 115.54 28.03C115.64 28.08 115.75 28.13 115.85 28.19C115.85 28.19 115.83 28.18 115.88 28.21C115.93 28.24 115.8 28.16 116.02 28.29C116.24 28.42 116.45 28.55 116.65 28.7C116.8 28.809 116.943 28.926 117.08 29.05C117.25 29.2 117.4 29.36 117.55 29.52C117.59 29.56 117.59 29.57 117.66 29.65C117.73 29.73 117.79 29.81 117.85 29.89C117.87 29.91 117.8 29.81 117.9 29.95C118 30.09 118.09 30.23 118.18 30.38C118.22 30.44 118.25 30.51 118.29 30.57C118.42 30.79 118.52 31.01 118.61 31.23C118.67 31.4 118.73 31.57 118.78 31.74L118.84 31.98C118.898 32.22 118.938 32.464 118.96 32.71L114.33 33.56C114.18 32.35 113.41 31.32 111.72 31.32C110.66 31.32 109.74 31.95 109.74 32.9C109.74 33.67 110.36 34.11 111.17 34.26L113.59 34.74L113.65 34.68ZM137.47 27.87V42.86C137.47 44.51 137.61 45.84 137.65 46.13H132.28C132.27 46.1 132.3 46.3 132.26 46.03C132.22 45.76 132.17 45.26 132.15 44.83C132.13 44.69 132.13 44.55 132.13 44.44V44.3L132.07 44.39C132.06 44.4 132.04 44.42 132.04 44.43C132.03 44.44 132.01 44.46 132.01 44.47C132 44.48 131.99 44.5 131.98 44.51L131.89 44.63C131.87 44.66 131.83 44.71 131.83 44.71H131.82V44.73C131.71 44.87 131.59 44.99 131.46 45.11C131.42 45.14 131.39 45.17 131.35 45.2C131.28 45.26 131.2 45.31 131.13 45.37C131.11 45.38 131.09 45.4 131.07 45.41C131 45.46 130.94 45.5 130.88 45.54C130.86 45.55 130.85 45.57 130.83 45.57C130.8 45.59 130.78 45.6 130.75 45.62C130.68 45.66 130.6 45.7 130.53 45.74L130.5 45.76V45.78H130.47C130.41 45.81 130.36 45.83 130.31 45.86V45.88H130.28C130.23 45.9 130.19 45.92 130.14 45.94C130.07 45.97 130.01 45.99 129.95 46.02C129.92 46.03 129.9 46.04 129.87 46.05L129.83 46.07C129.78 46.09 129.74 46.11 129.7 46.12L129.55 46.18C129.47 46.21 129.38 46.24 129.29 46.26C129.14 46.3 128.98 46.34 128.83 46.37L128.75 46.39C128.69 46.4 128.64 46.42 128.58 46.42C128.55 46.44 128.52 46.44 128.49 46.44C128.42 46.45 128.34 46.47 128.27 46.47C128.23 46.49 128.18 46.49 128.14 46.49C128.14 46.49 128.25 46.48 128.13 46.49C128.01 46.5 127.89 46.52 127.77 46.52C127.77 46.52 127.9 46.51 127.75 46.52C127.6 46.53 127.44 46.53 127.29 46.53C127.12 46.53 126.95 46.52 126.79 46.51H126.78C126.71 46.5 126.64 46.49 126.57 46.49H126.56C126.51 46.48 126.45 46.47 126.4 46.47C126.35 46.46 126.37 46.47 126.26 46.45C126.15 46.43 126.04 46.42 125.93 46.4L125.6 46.34C125.49 46.32 125.38 46.29 125.27 46.26C125.12 46.22 124.98 46.18 124.84 46.13C124.82 46.12 124.89 46.14 124.79 46.11C124.69 46.08 124.59 46.04 124.49 46C124.46 45.99 124.48 46 124.41 45.97C124.34 45.94 124.26 45.91 124.19 45.88C124.19 45.88 124.29 45.92 124.16 45.86C124.03 45.8 123.9 45.74 123.78 45.67C123.71 45.63 123.63 45.58 123.56 45.54C123.53 45.52 123.48 45.49 123.48 45.49L123.31 45.38C123.22 45.32 123.13 45.26 123.04 45.19C122.983 45.149 122.919 45.102 122.859 45.053C122.863 45.056 122.862 45.055 122.852 45.047C122.841 45.038 122.83 45.029 122.82 45.02C122.817 45.017 122.817 45.017 122.817 45.017C122.797 44.999 122.769 44.974 122.73 44.94C122.48 44.72 122.25 44.49 122.04 44.24C121.99 44.19 121.95 44.13 121.9 44.07C121.86 44.03 121.85 44 121.79 43.93C121.73 43.86 121.68 43.79 121.63 43.71C121.6 43.67 121.57 43.61 121.54 43.57C121.51 43.53 121.49 43.49 121.46 43.44C121.43 43.39 121.4 43.33 121.37 43.28C121.34 43.24 121.37 43.28 121.29 43.14C121.21 43 121.14 42.85 121.07 42.7C121.05 42.66 121.06 42.67 121.01 42.56C120.96 42.45 120.92 42.35 120.88 42.24C120.85 42.17 120.83 42.1 120.8 42.02C120.79 42 120.79 41.99 120.78 41.97C120.77 41.95 120.77 41.94 120.77 41.92C120.71 41.72 120.65 41.51 120.6 41.29C120.58 41.19 120.56 41.1 120.54 40.99C120.52 40.9 120.5 40.81 120.49 40.72C120.48 40.69 120.48 40.65 120.47 40.61C120.46 40.57 120.47 40.59 120.46 40.5C120.45 40.41 120.43 40.32 120.43 40.22C120.42 40.16 120.41 40.1 120.41 40.03C120.39 39.81 120.39 39.6 120.39 39.38V27.84H125.98V38.2C125.98 39.96 126.94 41.36 128.92 41.36C130.79 41.36 131.97 40.08 131.97 38.24V27.84H137.55L137.47 27.87ZM145.53 41.55H149.09V46.14H141.24C141.21 46.13 141.14 46.12 141.14 46.12H141.12C141.07 46.11 140.99 46.09 140.99 46.09H140.98L140.94 46.07H140.92L140.89 46.05H140.87C140.84 46.04 140.82 46.03 140.79 46.02C140.78 46.01 140.77 46.01 140.76 46C140.75 45.99 140.73 45.98 140.73 45.98L140.7 45.96C140.7 45.96 140.69 45.95 140.67 45.94C140.65 45.93 140.62 45.91 140.62 45.91C140.62 45.91 140.62 45.9 140.6 45.89C140.58 45.88 140.57 45.88 140.55 45.86C140.53 45.84 140.49 45.81 140.49 45.81L140.48 45.79C140.48 45.79 140.5 45.79 140.48 45.77C140.46 45.75 140.41 45.71 140.41 45.71L140.38 45.68C140.38 45.68 140.39 45.68 140.37 45.66C140.35 45.64 140.31 45.58 140.31 45.58V45.56C140.31 45.56 140.33 45.58 140.3 45.54C140.27 45.5 140.24 45.45 140.21 45.4L140.2 45.37C140.2 45.37 140.21 45.39 140.19 45.34C140.17 45.29 140.14 45.24 140.12 45.17H140.1V45.12C140.09 45.11 140.09 45.09 140.09 45.09V45.07C140.08 45.05 140.09 45.07 140.08 45.02C140.07 44.97 140.05 44.92 140.05 44.87V19.5H145.64V41.51L145.53 41.55Z" fill="white"/>
</svg>
