<svg width="99" height="31" viewBox="0 0 99 31" fill="none" xmlns="http://www.w3.org/2000/svg">
<path d="M20.905 0C25.223 0 28.733 3.547 28.733 7.912C28.733 12.277 25.223 15.825 20.905 15.825C20.762 15.825 20.631 15.825 20.5 15.813H20.488C20.334 15.801 20.167 15.801 20.012 15.801C14.932 15.801 10.803 19.961 10.803 25.108V25.276C10.803 25.396 10.803 25.505 10.815 25.625C10.815 28.595 8.43601 31 5.49701 31C2.55801 31 0.178005 28.595 0.178005 25.625C0.178005 22.955 2.10601 20.743 4.61601 20.322C4.89901 20.31 5.18101 20.286 5.46101 20.25C9.95801 19.636 13.421 15.753 13.421 11.039C13.421 10.75 13.409 10.462 13.385 10.185C13.385 10.173 13.373 10.125 13.373 10.065C13.361 9.908 13.337 9.788 13.326 9.704C13.287 9.511 13.231 9.322 13.159 9.139C12.671 7.828 11.255 6.806 9.828 6.782C9.709 6.782 9.304 6.782 8.804 6.938C8.203 7.118 7.66001 7.459 7.23401 7.924V7.936L7.05501 8.153C6.28701 9.005 5.19801 9.489 4.05701 9.488C1.82001 9.488 5.1555e-06 7.648 5.1555e-06 5.387C-0.00199484 4.118 0.578005 2.919 1.57101 2.14C2.26101 1.599 3.11701 1.275 4.05701 1.275C4.90201 1.275 5.68701 1.539 6.34201 1.996C6.92501 2.393 7.38901 2.934 7.69801 3.571C7.73301 3.688 7.78101 3.801 7.84101 3.908C8.42401 5.086 9.62501 5.892 11.017 5.892C11.303 5.892 11.565 5.856 11.827 5.796C12.671 5.604 13.397 5.111 13.885 4.425C14.051 4.197 14.194 3.944 14.301 3.668C15.681 1.467 18.12 0 20.905 0ZM55.682 8.693C56.52 8.693 57.06 9.177 57.509 9.934L70.057 31H65.476L62.213 25.462H51.91L53.706 22.345H60.384L55.532 14.113L45.651 31H41.309L53.826 9.934C54.275 9.177 54.844 8.693 55.682 8.693ZM41.284 20.92C41.284 27.73 37.899 30.938 30.323 30.938H22.537L27.319 27.167L30.325 27.094C35.415 27.094 37.481 25.188 37.481 20.92V8.935H41.284V20.92ZM87.472 8.936C93.813 8.936 99 13.632 99 19.37V20.472C99 23.572 97.485 26.365 95.096 28.28L98.453 30.937H93.391L92.18 29.988C90.74 30.576 89.147 30.906 87.472 30.906H80.686C74.345 30.906 69.158 26.21 69.158 20.472V19.37C69.158 13.632 74.345 8.936 80.686 8.936H87.472ZM81.324 12.795C77.026 12.795 73.508 15.979 73.508 19.869V19.975C73.508 23.866 77.026 27.049 81.324 27.049H86.834C87.326 27.049 87.808 27.005 88.276 26.925L82.311 22.246H87.469L91.636 25.544C93.466 24.246 94.65 22.229 94.65 19.975V19.869C94.65 15.978 91.133 12.795 86.834 12.795H81.324Z" fill="white"/>
</svg>
